<?xml version="1.0" encoding="utf-8"?>
<!-- Generator: Adobe Illustrator 24.3.0, SVG Export Plug-In . SVG Version: 6.00 Build 0)  -->
<svg version="1.1" id="Layer_1" xmlns="http://www.w3.org/2000/svg" xmlns:xlink="http://www.w3.org/1999/xlink" x="0px" y="0px"
	 width="429.7px" height="135.1px" viewBox="0 0 429.7 135.1" style="enable-background:new 0 0 429.7 135.1;" xml:space="preserve"
	>
<style type="text/css">
	.st0{fill:#FFFFFF;}
</style>
<g>
	<g>
		<g>
			<circle class="st0" cx="326.8" cy="54.3" r="4.5"/>
			<path class="st0" d="M329.3,52.7c0-0.2,0-0.3-0.1-0.5l16.2-24.9l0.9,0.6C340.7,36.2,335,44.4,329.3,52.7z"/>
			<path class="st0" d="M328.7,54.6c0-0.1-0.1-0.2-0.1-0.3l23.1-9.1l0.4,1C344.3,49,336.5,51.8,328.7,54.6z"/>
			<path class="st0" d="M329.3,54.3c0-0.2,0-0.3,0-0.5l30.4-3.1l0.1,1.1C349.6,52.6,339.5,53.5,329.3,54.3z"/>
			<polygon class="st0" points="330.1,55.8 330.2,55.3 346.3,60.5 345.9,61.5 			"/>
			<polygon class="st0" points="337.5,66.5 328.2,56.4 328.5,56 338.2,65.7 			"/>
			<polygon class="st0" points="332.2,67.5 326.2,55.2 326.7,55 333.1,66.9 			"/>
			<polygon class="st0" points="306.4,53.3 306.5,52.3 326.2,55.2 326.2,55.8 			"/>
			<polygon class="st0" points="326.2,55.2 293.2,35 293.8,34.1 326.5,54.8 			"/>
			<polygon class="st0" points="326.2,55.2 300.7,27.4 301.5,26.7 326.6,54.9 			"/>
			<polygon class="st0" points="328.2,56.4 311.7,33.9 312.6,33.2 328.6,56.1 			"/>
			<polygon class="st0" points="325.1,53.9 319.9,22.8 321,22.6 325.6,53.8 			"/>
			<polygon class="st0" points="326.6,51.9 331,19 332.1,19.1 327.1,52 			"/>
			
				<ellipse transform="matrix(0.1956 -0.9807 0.9807 0.1956 247.5214 340.8338)" class="st0" cx="331.5" cy="19.5" rx="3.2" ry="1.9"/>
			<ellipse transform="matrix(0.9949 -0.1011 0.1011 0.9949 -0.6731 32.514)" class="st0" cx="320.5" cy="22.9" rx="1.9" ry="3.2"/>
			<ellipse transform="matrix(0.872 -0.4894 0.4894 0.872 23.3854 157.5048)" class="st0" cx="312.9" cy="34" rx="1.9" ry="3.2"/>
			
				<ellipse transform="matrix(0.7468 -0.6651 0.6651 0.7468 58.4133 206.8572)" class="st0" cx="300.9" cy="26.7" rx="1.9" ry="3.2"/>
			
				<ellipse transform="matrix(0.5105 -0.8599 0.8599 0.5105 113.9584 270.3414)" class="st0" cx="294.4" cy="35.1" rx="1.9" ry="3.2"/>
			
				<ellipse transform="matrix(0.1197 -0.9928 0.9928 0.1197 216.2478 349.2002)" class="st0" cx="305" cy="52.7" rx="1.9" ry="3.2"/>
			
				<ellipse transform="matrix(0.8532 -0.5216 0.5216 0.8532 14.5079 182.8664)" class="st0" cx="332.1" cy="65.7" rx="1.9" ry="3.2"/>
			
				<ellipse transform="matrix(0.6997 -0.7144 0.7144 0.6997 54.3081 261.3946)" class="st0" cx="338.1" cy="66.1" rx="1.9" ry="3.2"/>
			
				<ellipse transform="matrix(0.3074 -0.9516 0.9516 0.3074 181.6167 369.9936)" class="st0" cx="345" cy="60.2" rx="1.9" ry="3.2"/>
			
				<ellipse transform="matrix(0.9992 -3.938286e-02 3.938286e-02 0.9992 -1.7349 14.249)" class="st0" cx="360.8" cy="51.2" rx="3.2" ry="1.9"/>
			<path class="st0" d="M328.3,53.2c-0.1-0.1-0.1-0.3-0.2-0.4L355,38.3l0.5,1C346.4,43.9,337.3,48.6,328.3,53.2z"/>
			
				<ellipse transform="matrix(0.9085 -0.4178 0.4178 0.9085 16.5696 152.2977)" class="st0" cx="356.1" cy="38.3" rx="3.2" ry="1.9"/>
			
				<ellipse transform="matrix(0.9046 -0.4262 0.4262 0.9046 14.3119 154.4424)" class="st0" cx="352.2" cy="45.2" rx="3.2" ry="1.9"/>
			<ellipse transform="matrix(0.972 -0.2352 0.2352 0.972 1.3639 91.1778)" class="st0" cx="382.9" cy="39.9" rx="3.2" ry="1.9"/>
			<ellipse transform="matrix(0.7209 -0.693 0.693 0.7209 79.3557 255.9746)" class="st0" cx="357.5" cy="29.5" rx="3.2" ry="1.9"/>
			
				<ellipse transform="matrix(0.7484 -0.6633 0.6633 0.7484 86.5603 249.9122)" class="st0" cx="372.6" cy="10.9" rx="3.2" ry="1.9"/>
			<ellipse transform="matrix(0.629 -0.7774 0.7774 0.629 118.5814 275.5835)" class="st0" cx="348" cy="13.5" rx="3.2" ry="1.9"/>
			
				<ellipse transform="matrix(0.5105 -0.8599 0.8599 0.5105 146.3497 311.0961)" class="st0" cx="346.4" cy="27" rx="3.2" ry="1.9"/>
			<path class="st0" d="M326.2,55.7c0-0.2-0.1-0.3-0.1-0.5l11.3-27.5l1,0.4C334.3,37.3,330.3,46.5,326.2,55.7z"/>
			
				<ellipse transform="matrix(0.3408 -0.9401 0.9401 0.3408 197.33 335.9194)" class="st0" cx="338.2" cy="27.2" rx="3.2" ry="1.9"/>
		</g>
		<g>
			<path class="st0" d="M66.5,24.2c-25.6,0-55.9,15.7-55.9,35.9c0,8.6,7.7,13.4,12.9,13.4c1.3,0,2.2-0.1,2.2-0.9
				c0-1.2-6.7-0.6-6.7-10.1c0-19.1,26.5-33.4,49.8-33.4c16.6,0,24.6,6.1,24.6,17.5c0,24.1-27.9,51-55.6,51
				c-12.9,0-17.6-5.3-18.4-5.3c-0.4,0-0.6,0.4-0.6,0.9c0,2.8,8.5,10.7,21.7,10.7c31.1,0,60.2-27,60.2-50.5
				C100.7,35.8,87.9,24.2,66.5,24.2z"/>
			<path class="st0" d="M37.1,93.1c3.5-11.9,24.5-44.6,24.5-48.9c0-3.9-5.1-7-6.7-7c-0.7,0-1.1,0.6-1.1,1.5
				c0,8.1-21.8,42.9-21.8,50.5c0,2.4,2.4,4.9,3.9,4.9C36.5,94.2,36.8,94,37.1,93.1z"/>
			<path class="st0" d="M418.5,80.2c-0.3,0-0.7,0.1-1.3,1.1c-2,2.8-8.1,9.7-13.1,9.7c-2.1,0-3.6-0.9-3.6-3.6
				c0-4.9,5.5-10.9,5.5-15.3c0-3.3-2.9-4.9-5.4-4.9c-6.9,0-18.6,11.8-26.8,23c3.3-7.8,7.1-17.6,7.1-24c0-4.9-3.4-8.5-11-8.5
				c-8,0-15.2,3.7-15.2,5.7c0,1.5,2.1,1.3,2.1,5.6c0,11.8-11.5,27.7-18.9,27.7c-2.5,0-3.7-1.7-3.7-4.8c0-7.4,7.4-17.9,15.2-22
				c1.3-0.8,1.9-1.1,1.9-1.8c0-0.6-0.3-1.1-1.3-1.1c-0.4,0-1.7,0.1-2.9,0.4c-6.7,1.7-14,7.1-17.9,13.5c-0.1,0.2-0.3,0.4-0.5,0.7
				c-2.9,4-10.7,14-17.1,14c-2.2,0-3.3-1.2-3.3-3.8c0-5.1,2.9-11.2,11.8-22.6c1.3-1.7,1.9-2.1,1.9-2.8c0-1.1-2.5-3.5-4.3-3.5
				c-3.8,0-9.9,9.1-13.4,17.2c-0.1,0.1-0.2,0.3-0.3,0.4c-4.2,6-13.3,17.4-18.9,17.4c-2.6,0-3.9-1.6-3.9-5.2
				c0-10.2,8.2-28.8,15.8-40.3c3.4-5.2,6.1-8.5,9.4-11c1.2-1,2.2-1.1,2.2-1.8c0-0.9-2-2.9-4.7-2.9c-4.7,0-8.8,5.3-14,13.5
				c-5.8,9.1-11.8,22.2-14.2,32.8c-4.9,5.1-14.5,13.4-23,13.4c-3.8,0-5.5-1.6-5.5-4.9c0-2.1,0.6-4.6,1.6-7.2
				c13.3-2.9,23.5-11,23.5-16.5c0-3.1-1.9-5.4-7.3-5.4c-9.8,0-25.2,14.2-25.6,26.3c-3.7,3.9-7.8,7-10.8,7c-2.5,0-4.5-1.5-4.5-5.8
				c0-6.9,5.1-19.2,10-28.9c6.1-11.7,13.8-21.5,18.5-23.7c-0.3-2.6-3.5-3.6-4.9-3.6c-6,0-16.1,15.9-22.8,31.7c-1-0.9-3-1.9-6.1-1.9
				c-11,0-25.1,11.9-29.8,23.1c-2.5,2.3-5.6,4.4-8.4,4.4c-2.1,0-3.6-0.9-3.6-3.6c0-4.9,5.5-10.9,5.5-15.3c0-3.3-2.9-4.9-5.4-4.9
				c-7.3,0-20,13.1-28.2,24.8c2.7-8.6,7.7-18.1,11.9-23.8c1.2-1.7,1.9-2.1,1.9-2.8c0-1.3-2.7-4.3-4.7-4.3c-3.6,0-8.9,10.6-12.4,20.4
				c-3,3.9-10.4,13-16.6,13c-1.7,0-3-0.9-3-3.7c0-4.8,5.5-10,5.5-12.4c0-1.7-2.2-4.4-3.6-4.4c-0.7,0-1.1,1.2-4.7,5.8
				c-7.4,9.4-14.9,16.3-18,16.3c-1,0-1.9-0.8-1.9-3c0-8.5,16.3-28.1,29.9-28.1c0.9,0,1.7,0.2,2.2,0.4c1,0.4,1.6-0.3,0.9-1.2
				c-1.1-1.6-3-2.7-6.4-2.7C115,61.6,95,80,95,93.2c0,5.3,3.4,7.3,6.3,7.3c6,0,13.7-7.3,19.7-14.4c-0.7,1.7-0.9,2.9-0.9,4.6
				c0,4,2.9,7,7.1,7c6,0,12.4-5.8,16.7-10.9c-1.3,4.1-2.1,7.7-2.1,9.6c0,3.4,3.3,4.8,4.5,4.8c0.6,0,0.9-0.2,1.3-1
				c11.9-20.9,23.9-28.6,26.8-28.6c0.7,0,1.2,0.4,1.2,1.2c0,2.2-6.3,9.8-6.3,15.4c0,4.3,3.5,7.2,8,7.2c3.5,0,7.2-2.1,10.4-4.8
				c-0.2,1-0.3,2-0.3,3c0,5.5,3.4,7.7,6.3,7.7c6.1,0,15.9-9.4,25.5-20c-0.9,3.3-1.3,6.3-1.3,8.5c0,6.4,3.7,9.7,8.8,9.7
				c3.8,0,8.6-3.4,12.9-7.8c0.9,5.7,4.8,8.4,10.9,8.4c8.9,0,18.7-7.4,24.6-13.6c-0.3,1.7-0.4,3.3-0.4,4.8c0,7.2,3.7,10.6,8.3,10.6
				c6.4,0,13.8-8,19.2-15.6c-0.3,1.4-0.5,2.6-0.5,3.6c0,6.6,3.4,9.7,7.5,9.7c6.1,0,12.8-6.5,17.3-12.2c-0.2,0.8-0.2,1.7-0.2,2.5
				c0,6.4,4.7,10.2,9.7,10.2c11.1,0,27.3-19.2,27.3-32.2c0-2.2-0.3-4.2-1.1-5.8c1.9-0.9,4.6-1.8,7.7-1.8c3.4,0,4.6,1.7,4.6,5.1
				c0,8.8-10.4,24-10.4,29.6c0,4.4,4.2,6.3,5.7,6.3c0.6,0,0.9-0.2,1.3-1c11.9-20.9,23.9-28.6,26.8-28.6c0.7,0,1.2,0.4,1.2,1.2
				c0,2.2-6.3,9.8-6.3,15.4c0,4.3,3.5,7.2,8,7.2c7,0,14.7-8.3,17.6-12.9c0.3-0.6,0.8-1.1,0.8-1.6S418.8,80.2,418.5,80.2z
				 M197.9,96.2c-1.1,0-1.9-0.8-1.9-2.8c0-8.2,13.4-27,25.4-27c1.5,0,2.4,0.3,2.8,0.6c-1.2,2.9-2.4,5.8-3.3,8.5
				C212.7,85.4,202.1,96.2,197.9,96.2z M266.6,64.9c0.9,0,1.5,0.4,1.5,1.6c0,3.4-8.1,12.7-18.3,15.5C253.8,73.6,261.6,65,266.6,64.9
				z"/>
		</g>
	</g>
	<g>
		<path class="st0" d="M234.2,119.1c0-1.1,0.2-2.1,0.6-3c0.4-0.9,0.9-1.8,1.6-2.5s1.4-1.3,2.3-1.7s1.8-0.6,2.8-0.6
			c1.3,0,2.5,0.2,3.5,0.6c1,0.4,1.8,1,2.5,1.7c0.7,0.7,1.1,1.5,1.5,2.5c0.3,0.9,0.5,1.9,0.5,2.9c0,1.2-0.2,2.3-0.6,3.3
			c-0.4,1-0.9,1.8-1.6,2.4c-0.7,0.7-1.5,1.2-2.5,1.5c-0.9,0.4-2,0.5-3,0.5c-1.1,0-2.1-0.2-3-0.6c-0.9-0.4-1.7-0.9-2.3-1.6
			c-0.7-0.7-1.2-1.5-1.5-2.4C234.4,121.3,234.2,120.2,234.2,119.1z M242.1,125.7c0.7,0,1.4-0.1,2-0.4c0.6-0.3,1.1-0.7,1.5-1.1
			c0.4-0.5,0.8-1.1,1-1.7c0.2-0.7,0.4-1.4,0.4-2.2c0-1.1-0.1-2.1-0.3-3.1c-0.2-0.9-0.6-1.8-1-2.5s-1.1-1.2-1.8-1.6
			c-0.7-0.4-1.5-0.6-2.5-0.6c-0.6,0-1.2,0.1-1.8,0.4c-0.6,0.2-1.1,0.6-1.5,1c-0.4,0.5-0.8,1-1,1.7c-0.3,0.7-0.4,1.4-0.4,2.3
			c0,1.1,0.1,2.2,0.4,3.2c0.2,1,0.6,1.8,1.1,2.5c0.5,0.7,1,1.3,1.7,1.7C240.4,125.5,241.2,125.7,242.1,125.7z"/>
		<path class="st0" d="M263.6,122.9v-9.6c0-0.3-0.1-0.6-0.4-0.7c-0.2-0.1-0.7-0.2-1.2-0.3c-0.2,0-0.3-0.1-0.3-0.4c0-0.1,0-0.2,0-0.4
			c0.4,0,0.8,0.1,1.2,0.1c0.4,0,0.8,0,1.1,0c0.3,0,0.7,0,1.1,0s0.7,0,1.1-0.1c0,0.2,0,0.3,0,0.4c0,0.2-0.1,0.4-0.2,0.4
			c-0.5,0.1-0.9,0.2-1.1,0.3c-0.2,0.1-0.3,0.4-0.3,0.7v13.5c0,0-0.1,0-0.2,0c-0.1,0-0.1,0-0.2,0c-0.1,0-0.2,0-0.3-0.1
			c-0.1-0.1-0.2-0.2-0.3-0.3l-9.3-12.3v10.8c0,0.3,0.1,0.5,0.3,0.6s0.6,0.2,1.2,0.3c0.2,0,0.2,0.2,0.2,0.4c0,0.1,0,0.2,0,0.4
			c-0.4,0-0.8-0.1-1.2-0.1c-0.4,0-0.8,0-1.1,0c-0.3,0-0.7,0-1.1,0s-0.8,0-1.1,0.1c0-0.2,0-0.3,0-0.4c0-0.2,0.1-0.3,0.3-0.4
			c0.6-0.1,0.9-0.2,1.1-0.3c0.2-0.1,0.3-0.3,0.3-0.6v-11.8c0-0.2-0.1-0.4-0.3-0.6c-0.2-0.1-0.5-0.2-1.1-0.3c-0.2,0-0.3-0.2-0.3-0.4
			c0-0.1,0-0.1,0-0.2c0,0,0-0.1,0-0.2c0.3,0,0.6,0.1,0.9,0.1c0.2,0,0.5,0,0.8,0c0.3,0,0.5,0,0.7,0c0.4,0,0.7,0,0.9,0
			c0.1,0,0.3,0.1,0.4,0.2L263.6,122.9z"/>
		<path class="st0" d="M281,112.5v12.3c0,0.4,0.1,0.6,0.4,0.7c0.3,0.1,0.8,0.3,1.5,0.3c0.2,0,0.3,0.1,0.3,0.4c0,0.1,0,0.2,0,0.4
			c-0.5,0-1-0.1-1.6-0.1c-0.5,0-1.1,0-1.6,0c-0.5,0-1.1,0-1.6,0c-0.6,0-1.1,0-1.6,0.1c0-0.2,0-0.3,0-0.4c0-0.2,0.1-0.3,0.2-0.4
			c0.7-0.1,1.2-0.2,1.5-0.3c0.3-0.1,0.5-0.4,0.5-0.7v-12.3h-2.4c-0.5,0-0.8,0-1.2,0.1c-0.3,0.1-0.6,0.2-0.8,0.4
			c-0.2,0.2-0.4,0.4-0.6,0.7c-0.2,0.3-0.3,0.6-0.5,1c0,0.1-0.1,0.1-0.1,0.2c-0.1,0-0.1,0-0.2,0c-0.2,0-0.3,0-0.4-0.1
			c0.2-0.6,0.3-1,0.3-1.5c0.1-0.4,0.1-0.8,0.2-1.1c0.1-0.3,0.1-0.5,0.2-0.7s0.2-0.2,0.3-0.2c0.1,0,0.3,0,0.5,0c0.2,0,0.4,0,0.6,0
			c0.2,0,0.4,0,0.7,0c0.2,0,0.4,0,0.6,0h7.7c0.2,0,0.4,0,0.6,0c0.2,0,0.5,0,0.7,0c0.2,0,0.4,0,0.6,0c0.2,0,0.3,0,0.5,0
			c0.2,0,0.3,0.1,0.3,0.2c0.1,0.2,0.1,0.4,0.2,0.7c0.1,0.3,0.1,0.7,0.2,1.1c0.1,0.4,0.2,0.9,0.4,1.4c-0.1,0-0.1,0.1-0.2,0.1
			s-0.1,0-0.2,0c-0.1,0-0.1,0-0.2,0c-0.1,0-0.1-0.1-0.2-0.2c-0.2-0.4-0.3-0.7-0.5-1c-0.2-0.3-0.4-0.5-0.6-0.7s-0.5-0.3-0.8-0.4
			c-0.3-0.1-0.7-0.1-1.2-0.1H281z"/>
		<path class="st0" d="M301.9,124.9c0,0.3,0.1,0.5,0.3,0.6c0.2,0.1,0.6,0.2,1.2,0.4c0.2,0,0.2,0.1,0.2,0.3c0,0.1,0,0.3,0,0.4
			c-0.4,0-0.8-0.1-1.4-0.1s-1,0-1.4,0c-0.4,0-0.9,0-1.4,0c-0.5,0-1,0-1.4,0.1c0-0.2,0-0.3,0-0.4c0-0.2,0.1-0.3,0.2-0.3
			c0.6-0.1,1-0.2,1.2-0.3s0.3-0.3,0.3-0.6v-5.6h-7.2v5.6c0,0.3,0.1,0.5,0.3,0.6c0.2,0.1,0.6,0.2,1.2,0.4c0.2,0,0.3,0.1,0.3,0.3
			c0,0.1,0,0.3,0,0.4c-0.4,0-0.9-0.1-1.4-0.1s-1,0-1.4,0c-0.4,0-0.9,0-1.4,0c-0.5,0-1,0-1.4,0.1c0-0.2,0-0.3,0-0.4
			c0-0.2,0.1-0.3,0.2-0.3c0.6-0.1,1-0.2,1.2-0.3s0.3-0.3,0.3-0.6v-11.7c0-0.2,0-0.3-0.1-0.4c0-0.1-0.1-0.2-0.2-0.3s-0.3-0.1-0.4-0.2
			c-0.2-0.1-0.4-0.1-0.7-0.2c-0.2,0-0.2-0.1-0.2-0.4c0-0.1,0-0.2,0-0.4c0.4,0,0.8,0.1,1.3,0.1s1,0,1.4,0c0.4,0,0.9,0,1.4,0
			c0.5,0,0.9,0,1.4-0.1c0,0.2,0,0.3,0,0.4c0,0.2-0.1,0.3-0.2,0.4c-0.6,0.1-1,0.2-1.2,0.3c-0.2,0.1-0.3,0.4-0.3,0.7v5.2h7.2v-5.2
			c0-0.3-0.1-0.5-0.3-0.6c-0.2-0.2-0.6-0.3-1.2-0.4c-0.2,0-0.3-0.1-0.3-0.4c0-0.1,0-0.2,0-0.4c0.4,0,0.8,0.1,1.3,0.1
			c0.5,0,1,0,1.4,0c0.4,0,0.9,0,1.3,0s0.9,0,1.4-0.1c0,0.2,0,0.3,0,0.4c0,0.2-0.1,0.3-0.2,0.4c-0.6,0.1-1,0.2-1.2,0.3
			c-0.2,0.1-0.3,0.4-0.3,0.7V124.9z"/>
		<path class="st0" d="M310.1,112.5v5.9h3.6c0.3,0,0.5-0.1,0.7-0.4c0.1-0.3,0.2-0.7,0.3-1.1c0-0.2,0.2-0.3,0.4-0.3c0,0,0.1,0,0.2,0
			c0.1,0,0.1,0,0.2,0c0,0.3-0.1,0.7-0.1,1.1c0,0.4,0,0.8,0,1.1c0,0.3,0,0.6,0,1c0,0.4,0,0.8,0.1,1.3c-0.1,0-0.2,0-0.3,0
			c-0.2,0-0.4-0.1-0.4-0.3c-0.1-0.4-0.2-0.8-0.3-1.1s-0.3-0.4-0.7-0.4h-3.6v5.4c0,0.3,0.2,0.5,0.6,0.6c0.4,0.1,1.1,0.2,2,0.2h1.3
			c0.4,0,0.8-0.1,1.2-0.2c0.3-0.1,0.6-0.3,0.9-0.5c0.3-0.2,0.5-0.5,0.7-0.8s0.4-0.6,0.6-1c0-0.1,0.2-0.2,0.3-0.2
			c0.1,0,0.2,0,0.2,0.1c0.1,0,0.2,0.1,0.2,0.1c-0.1,0.3-0.3,0.6-0.4,1s-0.2,0.8-0.3,1.2c-0.1,0.4-0.2,0.7-0.3,0.9s-0.2,0.4-0.4,0.4
			c-0.1,0-0.3,0-0.5,0c-0.2,0-0.5,0-0.7,0c-0.3,0-0.5,0-0.8,0c-0.3,0-0.5,0-0.7,0h-5c-0.4,0-0.9,0-1.4,0s-1,0-1.4,0.1
			c0-0.2,0-0.3,0-0.4c0-0.2,0.1-0.3,0.2-0.4c0.6-0.1,1-0.2,1.3-0.3s0.4-0.3,0.4-0.6v-11.7c0-0.3-0.1-0.5-0.3-0.6
			c-0.2-0.1-0.7-0.2-1.3-0.4c-0.2,0-0.2-0.2-0.2-0.4c0-0.1,0-0.1,0-0.2c0-0.1,0-0.1,0-0.2c0.7,0,1.2,0.1,1.7,0.1c0.4,0,0.8,0,1.2,0
			h4.5c0.7,0,1.3,0,1.8-0.1c0.5,0,0.8-0.1,1-0.1c0.2,0,0.3,0.1,0.4,0.4s0.1,0.6,0.2,0.9c0,0.4,0.1,0.7,0.2,1.1
			c0.1,0.4,0.2,0.7,0.3,1c-0.1,0.1-0.3,0.1-0.4,0.1c-0.2,0-0.3-0.1-0.4-0.2c-0.2-0.4-0.4-0.7-0.5-1c-0.2-0.3-0.4-0.5-0.6-0.7
			s-0.5-0.3-0.8-0.4c-0.3-0.1-0.7-0.1-1.2-0.1H310.1z"/>
		<path class="st0" d="M329.3,120.1v4.7c0,0.4,0.2,0.6,0.5,0.7c0.3,0.1,0.8,0.3,1.5,0.4c0.2,0,0.3,0.2,0.3,0.4c0,0.1,0,0.2,0,0.4
			c-0.4,0-1-0.1-1.5-0.1s-1.2,0-1.8,0c-0.4,0-0.9,0-1.4,0s-1,0-1.4,0.1c0-0.2,0-0.3,0-0.4c0-0.2,0.1-0.3,0.2-0.4
			c0.6-0.1,1-0.2,1.2-0.4c0.2-0.1,0.3-0.3,0.3-0.6v-11.7c0-0.3-0.1-0.5-0.4-0.7c-0.2-0.1-0.7-0.2-1.3-0.3c-0.2,0-0.2-0.2-0.2-0.4
			c0-0.1,0-0.2,0-0.3c0.4,0,0.9,0.1,1.4,0.1s0.9,0,1.4,0h3.2c1.7,0,2.9,0.4,3.7,1.2c0.8,0.8,1.2,1.8,1.2,3c0,0.5-0.1,1-0.3,1.5
			c-0.2,0.5-0.5,1-1,1.4c-0.4,0.4-0.9,0.7-1.6,1s-1.3,0.4-2.1,0.4H329.3z M330.5,119.1c1.1,0,1.9-0.2,2.5-0.7
			c0.6-0.5,0.9-1.3,0.9-2.4c0-0.5-0.1-0.9-0.2-1.3s-0.3-0.8-0.6-1.1c-0.3-0.3-0.6-0.6-1-0.7s-1-0.3-1.6-0.3h-1.2v6.6H330.5z"/>
		<path class="st0" d="M344.1,119.8h-1.7v5.1c0,0.3,0.2,0.6,0.5,0.7c0.3,0.1,0.8,0.2,1.4,0.3c0.2,0,0.3,0.2,0.3,0.4
			c0,0.1,0,0.2,0,0.4c-0.4,0-0.9-0.1-1.5-0.1c-0.6,0-1.2,0-1.7,0c-0.4,0-0.9,0-1.4,0s-1,0-1.5,0.1c0-0.2,0-0.3,0-0.4
			c0-0.2,0.1-0.3,0.3-0.4c0.6-0.1,1-0.2,1.2-0.3c0.2-0.1,0.4-0.3,0.4-0.7v-11.7c0-0.3-0.1-0.5-0.3-0.7c-0.2-0.1-0.7-0.3-1.3-0.3
			c-0.2,0-0.2-0.1-0.2-0.4c0-0.1,0-0.2,0-0.4c0.5,0,0.9,0.1,1.4,0.1c0.5,0,1,0,1.4,0h3.1c1.7,0,2.9,0.4,3.7,1.1
			c0.8,0.7,1.3,1.7,1.3,3c0,0.3-0.1,0.7-0.2,1.1c-0.1,0.4-0.3,0.7-0.5,1.1c-0.2,0.4-0.5,0.7-0.9,1c-0.4,0.3-0.8,0.5-1.3,0.7l3.8,5.3
			c0.3,0.4,0.6,0.7,1,0.8c0.4,0.2,0.7,0.3,1,0.3c0.1,0,0.2,0.1,0.2,0.3c0,0.1,0,0.3,0,0.4c-0.4,0-0.8-0.1-1.3-0.1c-0.5,0-1,0-1.4,0
			c-0.3,0-0.6-0.1-1-0.4c-0.3-0.3-0.6-0.6-0.9-1.1L344.1,119.8z M343.6,118.9c1.1,0,1.9-0.2,2.5-0.7c0.6-0.5,0.9-1.2,0.9-2.4
			c0-0.5-0.1-0.9-0.2-1.3s-0.3-0.7-0.6-1c-0.3-0.3-0.6-0.5-1.1-0.7c-0.4-0.2-1-0.3-1.6-0.3h-1.1v6.3H343.6z"/>
		<path class="st0" d="M362.3,121.1h-5.1l-1.5,3.7c-0.1,0.2-0.1,0.3-0.1,0.5c0,0.3,0.5,0.6,1.4,0.7c0.1,0,0.2,0.1,0.2,0.1
			c0,0.1,0.1,0.1,0.1,0.2c0,0.1,0,0.2,0,0.4c-0.4,0-0.9-0.1-1.3-0.1s-0.9,0-1.4,0c-0.3,0-0.6,0-0.9,0c-0.3,0-0.7,0-1,0.1
			c0-0.1,0-0.2,0-0.4c0-0.1,0-0.2,0.1-0.3s0.1-0.1,0.2-0.1c0.5-0.1,0.8-0.2,1.1-0.3c0.2-0.1,0.4-0.3,0.5-0.5l5.5-13.3
			c0.1-0.3,0.3-0.4,0.4-0.4c0.1,0,0.2,0,0.3,0l5.6,13.8c0.1,0.2,0.3,0.4,0.6,0.5c0.3,0.1,0.6,0.2,0.9,0.3c0.1,0,0.2,0.1,0.2,0.1
			s0.1,0.1,0.1,0.3c0,0.1,0,0.2,0,0.4c-0.5,0-1-0.1-1.4-0.1c-0.5,0-0.9,0-1.3,0c-0.4,0-0.9,0-1.5,0c-0.6,0-1,0-1.5,0.1
			c0-0.2,0-0.3,0-0.4c0-0.1,0-0.2,0.1-0.3s0.1-0.1,0.1-0.1c0.4-0.1,0.7-0.2,1-0.3c0.2-0.1,0.4-0.2,0.4-0.4c0-0.1,0-0.2-0.1-0.3
			L362.3,121.1z M361.9,120.1l-2.1-5.6l-2.2,5.6H361.9z"/>
		<path class="st0" d="M373.4,124.9c0,0.3,0.1,0.5,0.3,0.6c0.2,0.1,0.6,0.2,1.2,0.4c0.2,0,0.2,0.2,0.2,0.4c0,0.1,0,0.2,0,0.4
			c-0.5,0-1-0.1-1.4-0.1c-0.5,0-0.9,0-1.4,0c-0.4,0-0.9,0-1.4,0c-0.5,0-1,0-1.4,0.1c0-0.2,0-0.3,0-0.4c0-0.2,0.1-0.3,0.2-0.4
			c0.6-0.1,1-0.2,1.2-0.3s0.3-0.3,0.3-0.6v-11.7c0-0.3-0.1-0.5-0.3-0.7c-0.2-0.1-0.6-0.2-1.2-0.3c-0.1,0-0.2-0.1-0.2-0.1
			c0-0.1,0-0.2,0-0.3c0-0.1,0-0.2,0-0.4c0.5,0,0.9,0.1,1.4,0.1s0.9,0,1.3,0c0.4,0,0.8,0,1.3,0s1,0,1.5-0.1c0,0.2,0,0.3,0,0.4
			c0,0.2-0.1,0.4-0.2,0.4c-0.6,0.1-1,0.2-1.2,0.3c-0.2,0.1-0.3,0.3-0.3,0.7V124.9z"/>
		<path class="st0" d="M383.3,119.8h-1.7v5.1c0,0.3,0.2,0.6,0.5,0.7s0.8,0.2,1.4,0.3c0.2,0,0.3,0.2,0.3,0.4c0,0.1,0,0.2,0,0.4
			c-0.4,0-0.9-0.1-1.5-0.1c-0.6,0-1.2,0-1.7,0c-0.4,0-0.9,0-1.4,0c-0.5,0-1,0-1.5,0.1c0-0.2,0-0.3,0-0.4c0-0.2,0.1-0.3,0.3-0.4
			c0.6-0.1,1-0.2,1.2-0.3c0.2-0.1,0.4-0.3,0.4-0.7v-11.7c0-0.3-0.1-0.5-0.3-0.7c-0.2-0.1-0.7-0.3-1.3-0.3c-0.2,0-0.2-0.1-0.2-0.4
			c0-0.1,0-0.2,0-0.4c0.5,0,0.9,0.1,1.4,0.1c0.5,0,1,0,1.4,0h3.1c1.7,0,2.9,0.4,3.7,1.1c0.8,0.7,1.3,1.7,1.3,3
			c0,0.3-0.1,0.7-0.2,1.1c-0.1,0.4-0.3,0.7-0.5,1.1c-0.2,0.4-0.5,0.7-0.9,1c-0.4,0.3-0.8,0.5-1.3,0.7l3.8,5.3c0.3,0.4,0.6,0.7,1,0.8
			s0.7,0.3,1,0.3c0.1,0,0.2,0.1,0.2,0.3c0,0.1,0,0.3,0,0.4c-0.4,0-0.8-0.1-1.3-0.1s-1,0-1.4,0c-0.3,0-0.6-0.1-1-0.4
			c-0.3-0.3-0.6-0.6-0.9-1.1L383.3,119.8z M382.8,118.9c1.1,0,1.9-0.2,2.5-0.7s0.9-1.2,0.9-2.4c0-0.5-0.1-0.9-0.2-1.3
			c-0.1-0.4-0.3-0.7-0.6-1c-0.3-0.3-0.6-0.5-1.1-0.7c-0.4-0.2-1-0.3-1.6-0.3h-1.2v6.3H382.8z"/>
		<path class="st0" d="M396.6,124.9c0,0.3,0.1,0.5,0.3,0.6c0.2,0.1,0.6,0.2,1.2,0.4c0.2,0,0.2,0.2,0.2,0.4c0,0.1,0,0.2,0,0.4
			c-0.5,0-1-0.1-1.4-0.1c-0.5,0-0.9,0-1.4,0c-0.4,0-0.9,0-1.4,0c-0.5,0-1,0-1.4,0.1c0-0.2,0-0.3,0-0.4c0-0.2,0.1-0.3,0.2-0.4
			c0.6-0.1,1-0.2,1.2-0.3s0.3-0.3,0.3-0.6v-11.7c0-0.3-0.1-0.5-0.3-0.7c-0.2-0.1-0.6-0.2-1.2-0.3c-0.1,0-0.2-0.1-0.2-0.1
			c0-0.1,0-0.2,0-0.3c0-0.1,0-0.2,0-0.4c0.5,0,0.9,0.1,1.4,0.1s0.9,0,1.3,0c0.4,0,0.8,0,1.3,0s1,0,1.5-0.1c0,0.2,0,0.3,0,0.4
			c0,0.2-0.1,0.4-0.2,0.4c-0.6,0.1-1,0.2-1.2,0.3c-0.2,0.1-0.3,0.3-0.3,0.7V124.9z"/>
		<path class="st0" d="M404.8,112.5v5.9h3.6c0.3,0,0.5-0.1,0.7-0.4c0.1-0.3,0.2-0.7,0.3-1.1c0-0.2,0.2-0.3,0.4-0.3c0,0,0.1,0,0.2,0
			c0.1,0,0.1,0,0.2,0c0,0.3-0.1,0.7-0.1,1.1c0,0.4,0,0.8,0,1.1c0,0.3,0,0.6,0,1c0,0.4,0,0.8,0.1,1.3c-0.1,0-0.2,0-0.3,0
			c-0.2,0-0.4-0.1-0.4-0.3c-0.1-0.4-0.2-0.8-0.3-1.1s-0.3-0.4-0.7-0.4h-3.6v5.4c0,0.3,0.2,0.5,0.6,0.6c0.4,0.1,1.1,0.2,2,0.2h1.3
			c0.4,0,0.8-0.1,1.2-0.2c0.3-0.1,0.6-0.3,0.9-0.5c0.3-0.2,0.5-0.5,0.7-0.8s0.4-0.6,0.6-1c0-0.1,0.2-0.2,0.3-0.2
			c0.1,0,0.2,0,0.2,0.1c0.1,0,0.2,0.1,0.2,0.1c-0.1,0.3-0.3,0.6-0.4,1s-0.2,0.8-0.3,1.2c-0.1,0.4-0.2,0.7-0.3,0.9s-0.2,0.4-0.4,0.4
			c-0.1,0-0.3,0-0.5,0c-0.2,0-0.5,0-0.7,0c-0.3,0-0.5,0-0.8,0c-0.3,0-0.5,0-0.7,0h-5c-0.4,0-0.9,0-1.4,0s-1,0-1.4,0.1
			c0-0.2,0-0.3,0-0.4c0-0.2,0.1-0.3,0.2-0.4c0.6-0.1,1-0.2,1.3-0.3s0.4-0.3,0.4-0.6v-11.7c0-0.3-0.1-0.5-0.3-0.6
			c-0.2-0.1-0.7-0.2-1.3-0.4c-0.2,0-0.2-0.2-0.2-0.4c0-0.1,0-0.1,0-0.2c0-0.1,0-0.1,0-0.2c0.7,0,1.2,0.1,1.7,0.1c0.4,0,0.8,0,1.2,0
			h4.5c0.7,0,1.3,0,1.8-0.1c0.5,0,0.8-0.1,1-0.1c0.2,0,0.3,0.1,0.4,0.4s0.1,0.6,0.2,0.9c0,0.4,0.1,0.7,0.2,1.1
			c0.1,0.4,0.2,0.7,0.3,1c-0.1,0.1-0.3,0.1-0.4,0.1c-0.2,0-0.3-0.1-0.4-0.2c-0.2-0.4-0.4-0.7-0.5-1c-0.2-0.3-0.4-0.5-0.6-0.7
			s-0.5-0.3-0.8-0.4c-0.3-0.1-0.7-0.1-1.2-0.1H404.8z"/>
	</g>
</g>
</svg>
